<svg width="38" height="46" viewBox="0 0 38 46" fill="none" xmlns="http://www.w3.org/2000/svg">
<path d="M18.6771 0C8.50911 0 0.266113 8.243 0.266113 18.411C0.266113 27.635 11.7371 39.771 16.5711 44.476C17.7551 45.626 19.6271 45.65 20.8341 44.523C25.6971 39.99 37.0881 28.312 37.0881 18.41C37.0871 8.243 28.8451 0 18.6771 0ZM18.6771 24.393C14.4731 24.393 11.0671 20.987 11.0671 16.784C11.0671 12.581 14.4731 9.174 18.6771 9.174C22.8801 9.174 26.2851 12.58 26.2851 16.784C26.2851 20.988 22.8801 24.393 18.6771 24.393Z" fill="#412E27"/>
</svg>
